<svg xmlns="http://www.w3.org/2000/svg" viewBox="0 0 128 128">
  <defs>
    <linearGradient id="rocketGrad" x1="0%" y1="0%" x2="100%" y2="100%">
      <stop offset="0%" style="stop-color:#3b82f6"/>
      <stop offset="100%" style="stop-color:#8b5cf6"/>
    </linearGradient>
  </defs>

  <!-- Background circle -->
  <circle cx="64" cy="64" r="60" fill="#1e293b"/>

  <!-- Rocket body -->
  <path d="M64 20 C64 20 45 45 45 70 C45 85 53 95 64 100 C75 95 83 85 83 70 C83 45 64 20 64 20 Z"
        fill="url(#rocketGrad)" stroke="#fff" stroke-width="2"/>

  <!-- Rocket window -->
  <circle cx="64" cy="55" r="10" fill="#1e293b" stroke="#fff" stroke-width="2"/>
  <circle cx="64" cy="55" r="6" fill="#60a5fa"/>

  <!-- Rocket fins -->
  <path d="M45 75 L35 90 L45 85 Z" fill="#f97316"/>
  <path d="M83 75 L93 90 L83 85 Z" fill="#f97316"/>

  <!-- Rocket flame -->
  <ellipse cx="64" cy="105" rx="8" ry="12" fill="#fbbf24"/>
  <ellipse cx="64" cy="103" rx="5" ry="8" fill="#f97316"/>
  <ellipse cx="64" cy="101" rx="3" ry="5" fill="#fff"/>

  <!-- Check mark overlay -->
  <circle cx="90" cy="95" r="18" fill="#22c55e"/>
  <path d="M82 95 L88 101 L98 89" stroke="#fff" stroke-width="4" fill="none" stroke-linecap="round" stroke-linejoin="round"/>
</svg>
